<?xml version="1.0" encoding="utf-8"?>
<svg version="1.1" xmlns="http://www.w3.org/2000/svg" xmlns:xlink="http://www.w3.org/1999/xlink" x="0px"
	 y="0px" viewBox="0 0 240 83.5" style="enable-background:new 0 0 240 83.5;" xml:space="preserve">
<style type="text/css">
	.st0{fill:#475665;}
	.st1{fill:#39CE16;}
</style>
<g>
	<path class="st0" d="M156.7,74.8c-5.3,5.9-11,8.6-17.9,8.6c-14.1,0-21.6-10.2-21.6-20.8c0-11.3,8.1-20.7,20.5-20.7
		c12.3,0,20.8,9.4,20.8,23.4h-34c1.1,6.8,6.5,11.7,14.3,11.7c4.9,0,9.2-2.3,12.7-6.4L156.7,74.8 M150.6,59.6
		c-0.7-6.5-6-11.3-13.1-11.3c-8.4,0-12.4,5.9-13.1,11.3H150.6z"/>
	<path class="st0" d="M200.9,74.8c-5.3,5.9-11,8.6-17.9,8.6c-14.1,0-21.6-10.2-21.6-20.8c0-11.3,8.1-20.7,20.5-20.7
		c12.3,0,20.8,9.4,20.8,23.4h-34c1.1,6.8,6.5,11.7,14.2,11.7c4.9,0,9.2-2.3,12.7-6.4L200.9,74.8 M194.9,59.6
		c-0.7-6.5-6-11.3-13.1-11.3c-8.4,0-12.4,5.9-13.1,11.3H194.9z"/>
	<path class="st0" d="M98.1,41.9h8v5.3c1.6-2.5,3.4-4.1,5.3-4.8c1.5-0.5,3-0.7,4.5-0.5v8.3h-1.3c-2.5,0-4.5,0.9-6.1,2.7
		c-1.6,2-2.4,4.5-2.4,7.7v22.7h-8L98.1,41.9L98.1,41.9z"/>
	<path class="st0" d="M240,58.1c-0.3-3.8-1-8.6-5.1-12.3c-3.8-3.4-10-3.8-11.3-3.8c-5.5,0-9,2-8.9,4.1l0-4h-7.9v41.2h7.9l0-24.6
		c0.3-1.8-0.1-8.7,8.8-8.7c7.5,0,8.2,5.6,8.2,9.1v24.2h8.3V58.1z"/>
	<path class="st1" d="M93.7,83.3L86.4,42c0,0,0-0.1,0-0.1H50.5v9.2h23.6c-4.6,14.4-17.2,22.7-30.7,22.7c-4.3,0-8.6-0.9-12.5-2.5
		C16.7,65,7.7,48.5,13.3,31.8S36,7,51.6,10.9c5.2,1.5,10,4.2,14,7.8l0.1-0.1c2.7,2.5,5,5.4,6.7,8.6l8.7-5.2c-2.7-4.5-5.7-8.1-8.9-11
		l0.1-0.1C63.5,3.6,54.8,0.7,46.1,0.2C39.2-0.5,32.3,0.6,26,3.3C9.2,10.1,0,26.5,0,41.8c0,20,15.6,41.7,43.4,41.7
		c14.5,0,27.9-6.7,35.8-19l3.3,18.9L93.7,83.3L93.7,83.3z"/>
</g>
</svg>
